<svg xmlns="http://www.w3.org/2000/svg" viewBox="0 0 64 64">
  <rect width="64" height="64" rx="14" fill="#FAF3E7"/>
  <g fill="#CFDFEC" stroke="#3A4550" stroke-width="1.5">
    <rect x="20.5" y="7" width="9" height="24" rx="4.5" transform="rotate(-8 25 19)"/>
    <rect x="34.5" y="7" width="9" height="24" rx="4.5" transform="rotate(8 39 19)"/>
    <circle cx="32" cy="41" r="15"/>
  </g>
  <path fill="#E8B9BC" d="M23.6 10c1.3-.2 2.6.9 2.8 2.4l1.4 11-4 .5-1.5-11c-.2-1.5.3-2.7 1.3-2.9Z"/>
  <path fill="#E8B9BC" d="M40.4 10c-1.3-.2-2.6.9-2.8 2.4l-1.4 11 4 .5 1.5-11c.2-1.5-.3-2.7-1.3-2.9Z"/>
  <path fill="#5E86A4" d="M18.7 43c4.3 5.1 8.7 7.5 13.3 7.5s9-2.4 13.3-7.5A15 15 0 0 1 32 56a15 15 0 0 1-13.3-13Z"/>
  <circle cx="26.5" cy="39" r="2.1" fill="#3A4550"/>
  <circle cx="37.5" cy="39" r="2.1" fill="#3A4550"/>
  <path d="M29.5 45.5c1.4 1.5 3.6 1.5 5 0" stroke="#3A4550" stroke-width="1.8" stroke-linecap="round" fill="none"/>
</svg>
